<svg xmlns="http://www.w3.org/2000/svg" fill="none" viewBox="0 0 40 40" height="32" width="32"><g clip-path="url(#pptx_svg__a)"><path fill="#ED6C47" d="M20.007 0C11.657 0 9.215.009 8.74.048c-1.713.142-2.78.412-3.941.99A8 8 0 0 0 2.5 2.722C1.23 4.04.463 5.661.184 7.587.05 8.523.01 8.713.001 13.492c-.003 1.592 0 3.688 0 6.5 0 8.345.01 10.786.05 11.26.138 1.667.4 2.717.953 3.865 1.059 2.197 3.08 3.846 5.46 4.461.825.213 1.736.33 2.905.385.495.022 5.543.037 10.595.037 5.051 0 10.103-.006 10.586-.03 1.353-.064 2.14-.17 3.008-.395a8.37 8.37 0 0 0 5.46-4.47c.544-1.12.819-2.21.944-3.791.027-.345.038-5.84.038-11.327 0-5.488-.012-10.973-.04-11.318-.126-1.606-.4-2.686-.961-3.828a7.9 7.9 0 0 0-1.712-2.346C35.964 1.231 34.345.462 32.417.183c-.934-.135-1.12-.175-5.9-.183z" style="fill: color(display-p3 0.9294 0.4235 0.2784); fill-opacity: 1;"></path><path fill="#fff" d="M26.259 17.075q0 1.428-.655 2.62-.656 1.17-2.013 1.896t-3.37.726h-2.48v5.896H13.74V11.787h6.482q1.965 0 3.323.678 1.356.68 2.035 1.872.68 1.193.679 2.738m-6.341 2.06q1.146 0 1.708-.539.561-.538.561-1.521t-.561-1.521-1.708-.538H17.74v4.118z" style="fill: rgb(255, 255, 255); fill-opacity: 1;"></path></g><defs><clipPath id="pptx_svg__a"><path fill="#fff" d="M0 0h40v40H0z" style="fill: rgb(255, 255, 255); fill-opacity: 1;"></path></clipPath></defs></svg>